# xmcd
#
# Track frame offsets:
#	182
#	15720
#	28857
#	46520
#	60250
#	72187
#	86150
#	95170
#	107380
#	119960
#
# Disc length: 1747 seconds
#
# Revision: 1
# Processed by: cddbd v1.5.2PL0 Copyright (c) Steve Scherf et al.
# Submitted via: audiograbber 1.83.01
#
DISCID=8006d10a
DTITLE=Clinton Gregory - For Christmas
DYEAR=1993
DGENRE=Country
TTITLE0=For Christmas
TTITLE1=Home Pulls The Heartstrings
TTITLE2=Christmas In Virgina
TTITLE3=Silver Bells
TTITLE4=Christmas In Texas
TTITLE5=Thank God For Christmas
TTITLE6=In Bethlehem
TTITLE7=Christmas Time's A Comin' 
TTITLE8=Pretty Paper
TTITLE9=I'll Be Home For Christmas
EXTD=Christmas
EXTT0=
EXTT1=
EXTT2=
EXTT3=
EXTT4=
EXTT5=
EXTT6=
EXTT7=
EXTT8=
EXTT9=
PLAYORDER=
